<svg width="28" height="28" viewBox="0 0 28 28" fill="none" xmlns="http://www.w3.org/2000/svg">
<g clip-path="url(#clip0_2395_16805)">
<path fill-rule="evenodd" clip-rule="evenodd" d="M17.5059 4.66406C18.3739 4.66406 19.2909 4.9674 20.1309 5.30223L20.7457 5.55423C22.2158 6.17023 23.0418 7.4629 23.6823 8.88273C24.7218 11.1869 25.444 14.2587 25.6937 16.5944C25.8127 17.7027 25.8418 18.8181 25.6283 19.5682C25.3985 20.3697 24.6168 20.9367 23.8573 21.3824L23.4816 21.5959L23.0919 21.8129C22.8913 21.9249 22.6848 22.0357 22.4794 22.1442L21.8704 22.4592L21.0339 22.8757L20.3607 23.2071C20.2232 23.2812 20.0722 23.327 19.9166 23.3417C19.7611 23.3564 19.6042 23.3397 19.4552 23.2926C19.3062 23.2454 19.1682 23.1689 19.0494 23.0674C18.9306 22.966 18.8333 22.8417 18.7635 22.7019C18.6936 22.5622 18.6525 22.4098 18.6426 22.2539C18.6328 22.098 18.6543 21.9416 18.706 21.7942C18.7577 21.6467 18.8385 21.5112 18.9436 21.3956C19.0486 21.2799 19.1759 21.1866 19.3177 21.1211L20.2394 20.6661L19.5627 19.9556C17.941 20.6206 16.0312 20.9974 14.0023 20.9974C11.9734 20.9974 10.0636 20.6217 8.44189 19.9556L7.76522 20.6649L8.6904 21.1199C8.82752 21.1884 8.94981 21.2832 9.05029 21.3989C9.15077 21.5147 9.22747 21.6491 9.276 21.7945C9.32453 21.9399 9.34396 22.0934 9.33316 22.2463C9.32236 22.3992 9.28156 22.5484 9.21307 22.6856C9.14459 22.8227 9.04976 22.945 8.93402 23.0455C8.81827 23.1459 8.68386 23.2226 8.53848 23.2712C8.24485 23.3692 7.92432 23.3465 7.64738 23.2082L7.01271 22.8932C6.5437 22.6599 6.07352 22.4289 5.60918 22.1851L4.5265 21.5959L4.15199 21.3824C3.39248 20.9367 2.60964 20.3697 2.38097 19.5682C2.1663 18.8181 2.19663 17.7039 2.31447 16.5932C2.56414 14.2587 3.28632 11.1869 4.32583 8.88273C4.96634 7.4629 5.79235 6.17023 7.26238 5.55423C8.23772 5.1459 9.41958 4.66406 10.5023 4.66406C11.2058 4.66406 11.7588 5.31156 11.6573 6.00223C12.4337 5.88736 13.2175 5.83003 14.0023 5.83073C14.8085 5.83073 15.596 5.88906 16.352 6.0034C16.3295 5.83772 16.3425 5.66915 16.39 5.50886C16.4376 5.34856 16.5187 5.2002 16.6278 5.07358C16.737 4.94696 16.8719 4.84497 17.0234 4.77438C17.175 4.70378 17.3387 4.66618 17.5059 4.66406ZM10.2106 12.2474C9.6691 12.2474 9.14978 12.4625 8.76689 12.8454C8.384 13.2283 8.16889 13.7476 8.16889 14.2891C8.16889 14.8305 8.384 15.3499 8.76689 15.7327C9.14978 16.1156 9.6691 16.3307 10.2106 16.3307C10.7521 16.3307 11.2714 16.1156 11.6543 15.7327C12.0372 15.3499 12.2523 14.8305 12.2523 14.2891C12.2523 13.7476 12.0372 13.2283 11.6543 12.8454C11.2714 12.4625 10.7521 12.2474 10.2106 12.2474ZM17.794 12.2474C17.2525 12.2474 16.7332 12.4625 16.3503 12.8454C15.9674 13.2283 15.7523 13.7476 15.7523 14.2891C15.7523 14.8305 15.9674 15.3499 16.3503 15.7327C16.7332 16.1156 17.2525 16.3307 17.794 16.3307C18.3355 16.3307 18.8548 16.1156 19.2377 15.7327C19.6206 15.3499 19.8357 14.8305 19.8357 14.2891C19.8357 13.7476 19.6206 13.2283 19.2377 12.8454C18.8548 12.4625 18.3355 12.2474 17.794 12.2474Z" fill="white"/>
</g>
<defs>
<clipPath id="clip0_2395_16805">
<rect width="28.0004" height="28" fill="white"/>
</clipPath>
</defs>
</svg>
