<svg width="28" height="28" viewBox="0 0 28 28" fill="none" xmlns="http://www.w3.org/2000/svg">
<g clip-path="url(#clip0_2395_16809)">
<ellipse cx="14.0029" cy="14.0026" rx="18.667" ry="18.6667" fill="white"/>
<path d="M14.0029 -4.66406C3.69562 -4.66406 -4.66406 3.69549 -4.66406 14.0026C-4.66406 24.3097 3.69562 32.6693 14.0029 32.6693C24.3102 32.6693 32.6698 24.3097 32.6698 14.0026C32.6698 3.69549 24.3148 -4.66406 14.0029 -4.66406ZM4.54497 14.6295L4.6243 14.5035L9.48237 6.90616C9.49865 6.88119 9.52132 6.86104 9.54804 6.84783C9.57476 6.83461 9.60454 6.82881 9.63426 6.83104C9.66399 6.83327 9.69256 6.84343 9.71702 6.86048C9.74147 6.87752 9.7609 6.90082 9.77327 6.92794C10.5822 8.74638 11.2853 11.0082 10.9555 12.4159C10.8186 12.9946 10.4344 13.7786 10.0004 14.5035C9.94471 14.6095 9.88397 14.7128 9.81838 14.8131C9.80267 14.8354 9.78165 14.8535 9.75721 14.8657C9.73278 14.8779 9.70569 14.8839 9.67838 14.8831H4.68964C4.65986 14.8835 4.63051 14.8759 4.60472 14.861C4.57892 14.8461 4.55763 14.8246 4.54311 14.7986C4.5286 14.7726 4.52139 14.7431 4.52227 14.7133C4.52314 14.6836 4.53206 14.6546 4.54808 14.6295H4.54497ZM26.1893 17.2428C26.1897 17.276 26.1803 17.3086 26.1623 17.3366C26.1444 17.3645 26.1186 17.3865 26.0882 17.3999C25.7102 17.5602 24.4237 18.1544 23.8886 18.8964C22.5228 20.7973 21.4806 23.5164 19.1472 23.5164H9.4186C8.5972 23.5152 7.78409 23.3521 7.02574 23.0365C6.26739 22.7209 5.57867 22.2589 4.99893 21.677C4.4192 21.0951 3.95982 20.4047 3.64704 19.6452C3.33426 18.8857 3.17422 18.072 3.17606 17.2506V17.1386C3.17606 17.0484 3.25072 16.9737 3.34406 16.9737H8.76525C8.87414 16.9737 8.95192 17.0717 8.94414 17.1791C8.9037 17.5306 8.97059 17.8931 9.13859 18.2213C9.45904 18.8746 10.1279 19.2822 10.8482 19.2822H13.5331V17.1868H10.8762C10.845 17.1865 10.8146 17.1777 10.7881 17.1613C10.7616 17.145 10.7401 17.1217 10.7258 17.094C10.7116 17.0663 10.7052 17.0353 10.7073 17.0042C10.7094 16.9731 10.7199 16.9432 10.7377 16.9177L10.8357 16.7777C11.0846 16.4184 11.444 15.8662 11.8017 15.2346C12.0444 14.8084 12.2809 14.3542 12.4706 13.8968C12.508 13.8159 12.5375 13.7304 12.5718 13.6479C12.6231 13.5017 12.676 13.3648 12.7133 13.2295C12.75 13.1147 12.7837 12.9991 12.8144 12.8826C12.9031 12.4937 12.9404 12.083 12.9404 11.6584C12.9404 11.4904 12.9342 11.3146 12.9186 11.1497C12.9109 10.9677 12.8875 10.7842 12.8658 10.6022C12.8484 10.4393 12.8234 10.2774 12.7911 10.1168C12.7492 9.87237 12.6984 9.62954 12.6386 9.38883L12.6169 9.29549C12.5702 9.12749 12.5298 8.96883 12.4769 8.80238C12.3287 8.29124 12.1585 7.78676 11.9666 7.29038C11.8998 7.10367 11.8261 6.91947 11.7457 6.73816C11.6337 6.46127 11.5186 6.21083 11.4144 5.97594C11.3625 5.87531 11.3138 5.77311 11.2682 5.66949C11.2176 5.55771 11.1642 5.44723 11.108 5.33816C11.0706 5.25572 11.0255 5.17638 10.996 5.10172L10.6677 4.49816C10.6226 4.41572 10.6973 4.3146 10.7875 4.34105L12.8409 4.89638H12.8564L13.1255 4.97416L13.4242 5.05816L13.5331 5.08772V3.86972C13.5331 3.28016 14.0029 2.80261 14.5893 2.80261C14.7278 2.80223 14.8649 2.82988 14.9925 2.88388C15.12 2.93788 15.2353 3.01712 15.3314 3.11683C15.53 3.31716 15.6417 3.58762 15.6425 3.86972V5.68038L15.8618 5.74105C15.8774 5.74883 15.896 5.75661 15.91 5.76749C15.9629 5.80483 16.0407 5.86394 16.1387 5.93861C16.2165 5.99772 16.2989 6.07238 16.3954 6.15172C16.7025 6.40197 17.0004 6.66349 17.2883 6.93572C17.6212 7.24527 17.9945 7.60772 18.3523 8.0106C18.4534 8.12572 18.5498 8.23772 18.651 8.36216C18.7474 8.48505 18.8563 8.60483 18.9465 8.72305C19.0694 8.88483 19.1954 9.05283 19.3121 9.22705C19.3634 9.30949 19.4272 9.39505 19.4754 9.47749C19.6248 9.69838 19.7523 9.92549 19.8752 10.1542C19.9281 10.2584 19.9794 10.3735 20.0245 10.4855C20.163 10.7919 20.2719 11.1015 20.3388 11.4157C20.3609 11.4824 20.376 11.5512 20.3839 11.621V11.6366C20.4057 11.7253 20.4134 11.8233 20.4212 11.9228C20.465 12.3826 20.4088 12.8464 20.2563 13.2824C20.2081 13.413 20.163 13.5468 20.1039 13.6775C19.9872 13.9419 19.8534 14.2111 19.6932 14.4584C19.6403 14.5517 19.5765 14.6482 19.5174 14.7415C19.4505 14.8395 19.379 14.9328 19.3199 15.0215C19.2343 15.1393 19.1446 15.254 19.0507 15.3653C18.9683 15.4773 18.8859 15.5893 18.7925 15.6904C18.6665 15.8428 18.5436 15.9859 18.4114 16.1228C18.3367 16.2131 18.2558 16.3064 18.1687 16.3873C18.0878 16.4806 18.0007 16.5631 17.9261 16.6377C17.7954 16.7684 17.6927 16.8664 17.6025 16.9519L17.3894 17.1417C17.3597 17.1715 17.3194 17.1883 17.2774 17.1884H15.6425V19.2822H17.6989C18.1578 19.2822 18.595 19.1204 18.9496 18.8186C19.0694 18.7144 19.5952 18.2586 20.219 17.5711C20.2393 17.5476 20.2665 17.5313 20.2968 17.5244L25.9746 15.8802C25.9996 15.873 26.0258 15.8716 26.0513 15.8763C26.0769 15.8809 26.101 15.8914 26.1218 15.9069C26.1426 15.9224 26.1595 15.9426 26.1712 15.9657C26.1829 15.9889 26.1891 16.0144 26.1893 16.0404V17.2428Z" fill="#111111"/>
</g>
<defs>
<clipPath id="clip0_2395_16809">
<rect width="28.0004" height="28" fill="white"/>
</clipPath>
</defs>
</svg>
