<svg width="18" height="18" viewBox="0 0 18 18" fill="none" xmlns="http://www.w3.org/2000/svg">
<circle cx="9" cy="9" r="8.5" fill="#F20057" stroke="#242424"/>
<path d="M8.38012 5.27945C8.6369 4.75924 9.37872 4.75924 9.63551 5.27945L10.3901 6.80818C10.492 7.01457 10.6888 7.15769 10.9166 7.19098L12.6052 7.4378C13.1791 7.52169 13.4079 8.22717 12.9923 8.63189L11.7716 9.82092C11.6065 9.98174 11.5311 10.2135 11.5701 10.4407L11.858 12.1197C11.9561 12.6915 11.3558 13.1276 10.8423 12.8575L9.33363 12.0642C9.12966 11.9569 8.88597 11.9569 8.682 12.0642L7.17336 12.8575C6.65982 13.1276 6.05953 12.6915 6.15761 12.1197L6.44557 10.4407C6.48454 10.2135 6.40917 9.98174 6.24406 9.82092L5.02329 8.63189C4.60777 8.22717 4.83652 7.52169 5.41046 7.43779L7.09907 7.19098C7.32682 7.15769 7.52365 7.01457 7.62552 6.80818L8.38012 5.27945Z" fill="white" stroke="#5F0A29" stroke-width="0.7" stroke-linecap="round" stroke-linejoin="round"/>
</svg>
