<svg width="28" height="28" viewBox="0 0 28 28" fill="none" xmlns="http://www.w3.org/2000/svg">
<g clip-path="url(#clip0_2395_16801)">
<path d="M22.03 6.38443C22.1197 6.28189 22.1883 6.16268 22.2319 6.03363C22.2755 5.90458 22.2933 5.7682 22.2842 5.63228C22.2751 5.49636 22.2393 5.36356 22.1788 5.24147C22.1184 5.11939 22.0345 5.01039 21.932 4.92072C21.8294 4.83104 21.7102 4.76244 21.5812 4.71884C21.4521 4.67523 21.3157 4.65747 21.1798 4.66657C21.0439 4.67567 20.9111 4.71145 20.789 4.77187C20.6669 4.83229 20.5579 4.91617 20.4682 5.01871L15.1689 11.0747L10.6712 5.07886C10.5746 4.95007 10.4493 4.84554 10.3053 4.77354C10.1613 4.70154 10.0025 4.66406 9.84151 4.66406H5.6933C5.50071 4.66406 5.31192 4.71769 5.14809 4.81894C4.98426 4.92018 4.85187 5.06505 4.76573 5.2373C4.6796 5.40955 4.64314 5.60238 4.66044 5.79418C4.67774 5.98598 4.74811 6.16918 4.86366 6.32325L11.5392 15.2227L5.94946 21.6106C5.85978 21.7131 5.79117 21.8323 5.74756 21.9614C5.70395 22.0904 5.68619 22.2268 5.69529 22.3627C5.70439 22.4986 5.74018 22.6314 5.8006 22.7535C5.86103 22.8756 5.94491 22.9846 6.04746 23.0743C6.15001 23.1639 6.26921 23.2325 6.39828 23.2761C6.52734 23.3198 6.66373 23.3375 6.79965 23.3284C6.93558 23.3193 7.06838 23.2835 7.19048 23.2231C7.31258 23.1627 7.42158 23.0788 7.51126 22.9763L12.8106 16.9192L17.3083 22.9151C17.4049 23.0439 17.5302 23.1484 17.6742 23.2204C17.8182 23.2924 17.9769 23.3299 18.1379 23.3299H22.2861C22.4787 23.3299 22.6675 23.2763 22.8314 23.175C22.9952 23.0738 23.1276 22.9289 23.2137 22.7566C23.2998 22.5844 23.3363 22.3916 23.319 22.1998C23.3017 22.008 23.2313 21.8248 23.1158 21.6707L16.4403 12.7713L22.03 6.38443Z" fill="white"/>
</g>
<defs>
<clipPath id="clip0_2395_16801">
<rect width="28.0004" height="28" fill="white"/>
</clipPath>
</defs>
</svg>
